<?xml version="1.0" standalone="no"?>
<!DOCTYPE svg PUBLIC "-//W3C//DTD SVG 20010904//EN"
 "http://www.w3.org/TR/2001/REC-SVG-20010904/DTD/svg10.dtd">
<svg version="1.0" xmlns="http://www.w3.org/2000/svg"
 width="400.000000pt" height="400.000000pt" viewBox="0 0 400.000000 400.000000"
 preserveAspectRatio="xMidYMid meet">

<g transform="translate(0.000000,400.000000) scale(0.100000,-0.100000)"
fill="#000000" stroke="none">
<path d="M0 3455 l0 -545 129 0 c85 0 132 4 137 11 4 7 26 9 56 7 41 -4 57
-12 91 -46 23 -22 60 -53 83 -69 72 -50 149 -109 163 -127 12 -15 10 -21 -16
-54 -50 -62 -95 -82 -191 -82 -79 0 -86 2 -165 45 -73 39 -91 45 -145 45 -57
0 -65 -3 -102 -36 -39 -36 -40 -38 -40 -104 l0 -68 69 -36 c38 -20 78 -36 89
-36 11 0 25 -7 32 -15 7 -8 25 -15 41 -15 15 0 30 -4 33 -9 3 -4 30 -16 60
-25 65 -21 110 -66 126 -126 6 -23 14 -48 17 -56 4 -12 -13 -14 -103 -14 -171
0 -364 -12 -358 -22 3 -5 12 -7 19 -4 7 2 16 -2 19 -10 4 -11 35 -14 165 -14
88 0 162 -4 165 -9 3 -4 51 -11 107 -15 127 -9 173 -29 190 -83 16 -55 24
-232 10 -246 -6 -6 -11 -32 -11 -58 0 -26 -4 -50 -9 -53 -10 -7 -48 39 -106
127 -34 52 -36 61 -26 84 6 14 9 28 7 31 -3 3 -38 -10 -76 -27 -39 -18 -89
-35 -111 -38 -22 -3 -42 -10 -45 -14 -3 -5 -20 -9 -38 -9 -19 0 -47 -7 -62
-15 -19 -10 -58 -15 -116 -15 l-88 0 0 -94 c0 -58 4 -97 11 -102 7 -4 8 -21 4
-48 -4 -22 -8 -171 -9 -331 l-1 -290 44 -84 c24 -46 39 -81 34 -78 -5 3 -22
33 -38 68 l-30 62 -7 -44 c-3 -24 -7 -207 -7 -406 l-1 -363 458 0 c251 0 507
3 568 7 l112 6 -27 24 c-18 17 -13 15 18 -6 l44 -31 242 0 242 0 24 34 c13 19
55 73 93 121 38 47 87 121 110 163 47 87 46 86 141 52 105 -39 268 -18 345 42
23 18 34 19 121 13 198 -14 340 45 390 163 27 63 23 118 -14 200 -17 36 4 42
143 42 l124 0 121 -60 c66 -32 163 -73 215 -91 278 -93 546 -6 465 150 -22 44
-125 131 -221 189 -187 111 -360 152 -648 152 -139 0 -181 3 -235 20 -80 23
-113 45 -92 59 25 17 135 22 261 12 196 -16 258 0 289 70 l18 40 159 5 c157 4
464 37 510 54 l24 9 0 271 0 271 -28 10 c-65 24 -292 132 -292 139 0 16 215
110 251 110 5 0 23 10 39 22 22 16 30 30 30 51 0 29 -1 29 -37 24 -26 -5 -33
-3 -23 3 8 5 25 10 38 10 l22 0 0 368 c0 203 -3 410 -7 461 -6 87 -7 91 -27
86 -15 -4 -13 -1 6 10 l28 16 0 354 0 355 -2000 0 -1999 0 -1 -545z m3930
-205 c-8 -5 -19 -10 -25 -10 -5 0 -3 5 5 10 8 5 20 10 25 10 6 0 3 -5 -5 -10z
m-140 -50 c-8 -5 -19 -10 -25 -10 -5 0 -3 5 5 10 8 5 20 10 25 10 6 0 3 -5 -5
-10z m-170 -59 c-8 -5 -26 -11 -40 -15 -21 -5 -20 -3 5 9 32 15 60 20 35 6z
m-170 -61 c-8 -5 -19 -10 -25 -10 -5 0 -3 5 5 10 8 5 20 10 25 10 6 0 3 -5 -5
-10z m-140 -50 c-8 -5 -19 -10 -25 -10 -5 0 -3 5 5 10 8 5 20 10 25 10 6 0 3
-5 -5 -10z m-80 -30 c-8 -5 -19 -10 -25 -10 -5 0 -3 5 5 10 8 5 20 10 25 10 6
0 3 -5 -5 -10z m-100 -40 c-8 -5 -19 -10 -25 -10 -5 0 -3 5 5 10 8 5 20 10 25
10 6 0 3 -5 -5 -10z m-80 -35 c0 -3 -27 -18 -59 -35 -33 -16 -64 -38 -70 -47
-6 -10 -11 -13 -11 -7 0 16 28 38 85 67 56 29 55 29 55 22z m-123 -137 c-3 -8
-6 -5 -6 6 -1 11 2 17 5 13 3 -3 4 -12 1 -19z m10 -40 c-3 -8 -6 -5 -6 6 -1
11 2 17 5 13 3 -3 4 -12 1 -19z m10 -40 c-3 -8 -6 -5 -6 6 -1 11 2 17 5 13 3
-3 4 -12 1 -19z m10 -40 c-3 -8 -6 -5 -6 6 -1 11 2 17 5 13 3 -3 4 -12 1 -19z
m20 -70 c-3 -8 -6 -5 -6 6 -1 11 2 17 5 13 3 -3 4 -12 1 -19z m10 -40 c-3 -8
-6 -5 -6 6 -1 11 2 17 5 13 3 -3 4 -12 1 -19z m34 -65 c13 -16 12 -17 -3 -4
-17 13 -22 21 -14 21 2 0 10 -8 17 -17z m119 -79 c0 -7 -58 25 -65 36 -3 5 10
1 29 -11 20 -12 36 -23 36 -25z m-2045 -32 c33 -16 92 -58 130 -93 117 -107
207 -169 244 -169 29 0 49 -31 96 -146 41 -99 53 -144 40 -144 -2 0 -51 30
-107 67 -162 105 -216 127 -324 131 -86 4 -93 3 -115 -19 l-24 -24 105 -7
c138 -9 144 -11 173 -60 33 -58 82 -190 95 -258 6 -30 14 -65 18 -77 10 -35
-16 -29 -57 13 -82 84 -329 226 -417 238 -15 3 -43 9 -62 15 -19 6 -60 11 -92
11 l-56 0 -21 63 c-29 86 -42 101 -108 127 -32 12 -68 26 -80 31 -43 17 -22
68 59 145 56 53 98 72 180 83 77 10 57 26 -27 23 -41 -1 -75 1 -75 6 0 15 22
29 65 41 22 6 47 15 55 21 8 5 67 10 130 10 106 0 120 -2 175 -28z m2115 -8
c0 -2 -13 2 -30 11 -16 9 -30 18 -30 21 0 2 14 -2 30 -11 17 -9 30 -18 30 -21z
m-1165 -75 c79 -53 91 -75 112 -202 5 -32 2 -42 -21 -66 -51 -53 -64 -182 -24
-250 12 -21 19 -44 16 -52 -3 -8 -33 -30 -67 -47 l-60 -33 -49 25 c-63 32
-105 81 -127 146 -14 42 -16 77 -13 193 6 160 15 196 80 294 l41 62 36 -21
c20 -12 54 -34 76 -49z m1215 45 c0 -2 -9 0 -20 6 -11 6 -20 13 -20 16 0 2 9
0 20 -6 11 -6 20 -13 20 -16z m90 -50 c0 -2 -13 2 -30 11 -16 9 -30 18 -30 21
0 2 14 -2 30 -11 17 -9 30 -18 30 -21z m530 16 c-8 -5 -19 -10 -25 -10 -5 0
-3 5 5 10 8 5 20 10 25 10 6 0 3 -5 -5 -10z m-420 -75 c0 -3 -18 4 -40 15 -22
11 -40 23 -40 25 0 3 18 -4 40 -15 22 -11 40 -23 40 -25z m279 21 c-10 -9
-109 -56 -109 -51 0 6 91 54 104 55 5 0 7 -2 5 -4z m-119 -61 c0 -14 -42 -25
-58 -15 -15 10 -15 10 3 6 11 -3 27 -1 35 4 17 11 20 12 20 5z m-2163 -333
c47 -40 66 -92 127 -343 66 -267 121 -451 149 -499 61 -104 138 -161 253 -190
25 -6 84 -41 145 -86 121 -89 123 -90 254 -115 87 -17 109 -18 173 -8 94 15
132 44 132 97 -1 21 -7 48 -15 62 -8 14 -14 30 -15 37 0 18 81 26 128 14 33
-9 43 -17 48 -39 3 -15 10 -37 15 -50 5 -13 9 -49 9 -81 0 -56 -2 -60 -44 -99
-24 -22 -61 -45 -83 -51 -21 -5 -57 -14 -79 -20 -119 -31 -352 6 -523 85 -52
23 -99 41 -103 38 -41 -26 70 -96 210 -134 45 -12 82 -26 82 -30 0 -4 -29 -16
-65 -25 -115 -31 -225 -6 -356 81 -98 65 -157 116 -194 168 -60 85 -161 436
-195 683 -11 81 -27 198 -36 258 -10 73 -27 139 -50 196 -19 48 -34 89 -34 93
0 9 29 -9 67 -42z m1112 -103 c1 -28 9 -62 17 -74 14 -22 12 -25 -32 -64 -26
-22 -55 -41 -64 -41 -20 0 -80 84 -80 112 0 11 13 23 36 33 19 8 54 30 76 50
23 19 42 35 43 35 1 0 2 -23 4 -51z m-1822 -36 c-2 -16 -4 -3 -4 27 0 30 2 43
4 28 2 -16 2 -40 0 -55z m93 67 c8 -5 11 -10 5 -10 -5 0 -17 5 -25 10 -8 5
-10 10 -5 10 6 0 17 -5 25 -10z m57 -40 c1 -21 1 -21 -3 -3 -3 12 -13 24 -22
27 -12 3 -11 4 3 3 14 -2 21 -10 22 -27z m882 -163 c90 -43 198 -47 384 -14
76 13 157 24 179 23 l41 -1 56 -106 c89 -169 133 -226 223 -291 32 -23 56 -44
54 -45 -2 -2 -61 -10 -132 -18 -204 -23 -324 -54 -353 -89 -23 -28 11 -29 120
-3 57 14 154 30 214 37 61 6 143 16 183 21 119 15 465 11 582 -6 124 -19 245
-63 359 -130 100 -59 215 -163 209 -191 -5 -26 -84 -63 -161 -77 -59 -10 -76
-8 -169 15 -107 26 -241 77 -274 104 -33 26 97 11 207 -25 53 -17 106 -31 119
-31 22 0 22 1 6 19 -23 25 -100 58 -192 81 -65 17 -129 20 -507 26 -395 7
-433 6 -446 -9 -12 -15 -39 -17 -202 -17 -314 0 -405 37 -505 206 -22 38 -160
539 -172 623 l-5 35 59 -53 c33 -29 88 -67 123 -84z m1386 107 c57 -19 118
-61 110 -75 -4 -5 -24 0 -47 12 -42 21 -68 20 -68 -5 0 -8 36 -44 80 -80 44
-37 80 -74 80 -82 0 -15 -2 -15 -22 -2 -81 53 -86 51 -68 -22 11 -47 11 -54
-7 -78 -36 -49 -52 -52 -291 -52 -151 0 -228 -4 -241 -12 -23 -14 -51 -4 -51
19 0 29 24 57 107 123 l77 62 60 -6 c34 -3 72 -7 86 -8 16 -2 25 2 28 14 10
52 -148 75 -257 39 -35 -12 -66 -20 -69 -17 -6 7 136 154 162 168 54 29 245
30 331 2z m-2432 -19 c-3 -9 -8 -14 -10 -11 -3 3 -2 9 2 15 9 16 15 13 8 -4z
m-21 -107 c-8 -8 -9 -4 -5 13 4 13 8 18 11 10 2 -7 -1 -18 -6 -23z m-13 -48
c11 -24 11 -24 -3 -6 -9 11 -16 24 -16 30 0 12 5 7 19 -24z m248 -47 c-3 -10
-5 -2 -5 17 0 19 2 27 5 18 2 -10 2 -26 0 -35z m470 -19 c31 -24 33 -28 33
-89 0 -35 6 -90 14 -122 37 -155 56 -244 56 -269 0 -23 -2 -25 -17 -13 -9 8
-34 38 -56 68 -41 55 -53 92 -64 189 -3 29 -9 55 -14 58 -14 8 -11 204 3 204
6 0 26 -11 45 -26z m1223 6 l35 -1 -44 -39 c-24 -22 -50 -40 -57 -40 -16 0
-56 74 -46 85 4 4 23 4 42 1 19 -3 51 -6 70 -6z m-1672 -391 l-3 -364 -5 372
c-3 205 -2 369 3 364 4 -4 6 -171 5 -372z m-221 -106 c-1 -87 -3 -16 -3 157 0
173 2 244 3 158 2 -87 2 -229 0 -315z m1718 -183 c4 -11 18 -34 32 -50 34 -40
25 -60 -28 -60 -82 0 -309 88 -309 120 0 6 58 10 149 10 141 0 150 -1 156 -20z
m-1477 -160 c0 -9 -3 -7 -8 5 -5 11 -8 29 -8 40 0 16 2 15 8 -5 4 -14 8 -32 8
-40z m-824 -57 c20 -32 27 -46 14 -31 -26 30 -62 88 -55 88 2 0 21 -26 41 -57z
m833 -20 c-3 -10 -5 -2 -5 17 0 19 2 27 5 18 2 -10 2 -26 0 -35z m-206 -84
c11 -16 18 -29 15 -29 -10 0 -56 75 -55 90 0 8 4 5 10 -9 5 -13 18 -36 30 -52z
m-80 24 c12 -16 12 -17 -1 -7 -8 7 -24 14 -35 17 -19 4 -19 5 1 6 12 0 28 -7
35 -16z m-434 1 c-3 -3 -12 -4 -19 -1 -8 3 -5 6 6 6 11 1 17 -2 13 -5z m318
-4 c-11 -5 -27 -9 -35 -9 -9 0 -8 4 5 9 11 5 27 9 35 9 9 0 8 -4 -5 -9z m-278
-6 c-3 -3 -12 -4 -19 -1 -8 3 -5 6 6 6 11 1 17 -2 13 -5z m171 -11 c-26 -2
-71 -2 -100 0 -29 2 -8 3 47 3 55 0 79 -1 53 -3z m323 -113 c29 -36 103 -117
163 -180 61 -63 80 -86 42 -50 -78 74 -225 237 -258 283 -29 43 -11 25 53 -53z
m74 -7 c38 -43 54 -64 36 -48 -33 30 -116 125 -109 125 2 0 35 -35 73 -77z
m174 2 c0 -5 -6 1 -14 15 -8 14 -14 30 -14 35 0 6 6 -1 14 -15 8 -14 14 -29
14 -35z m21 -50 c0 -5 -5 -3 -10 5 -5 8 -10 20 -10 25 0 6 5 3 10 -5 5 -8 10
-19 10 -25z m-93 -51 c2 -13 1 -15 -4 -4 -3 8 -11 19 -17 23 -7 6 -6 7 4 4 8
-2 16 -12 17 -23z m123 -29 c0 -5 -5 -3 -10 5 -5 8 -10 20 -10 25 0 6 5 3 10
-5 5 -8 10 -19 10 -25z m-50 -40 c30 -30 52 -55 49 -55 -2 0 -29 25 -59 55
-30 30 -52 55 -49 55 2 0 29 -25 59 -55z m80 -30 c0 -13 -3 -26 -7 -28 -5 -3
-8 10 -8 28 0 18 3 31 8 28 4 -2 7 -15 7 -28z m363 -2 c-7 -2 -19 -2 -25 0 -7
3 -2 5 12 5 14 0 19 -2 13 -5z"/>
</g>
</svg>
